{"title":"Mad Max_Furia en la Carretera 2015 [720p][Spanish]","uid":12835607,"size":1395250344,"categoryP":"video","categoryS":"movies","magnet":"?xt=urn:btih:54584ba8d3b148ac12e2dff24ca27bd681778eba&amp;dn=Mad+Max_Furia+en+la+Carretera+2015+%5B720p%5D%5BSpanish%5D&amp;tr=udp%3A%2F%2Ftracker.leechers-paradise.org%3A6969&amp;tr=udp%3A%2F%2Fzer0day.ch%3A1337&amp;tr=udp%3A%2F%2Fopen.demonii.com%3A1337&amp;tr=udp%3A%2F%2Ftracker.coppersurfer.tk%3A6969&amp;tr=udp%3A%2F%2Fexodus.desync.com%3A6969","seeders":1,"leechers":0,"uploader":"buker10","files":1,"time":1448446322,"description":"General\r\nComplete name                            : Mad Max_Furia en la carretera.m4v\r\nFormat                                   : MPEG-4\r\nFormat profile                           : Base Media / Version 2\r\nCodec ID                                 : mp42\r\nFile size                                : 1.30 GiB\r\nDuration                                 : 2h 0mn\r\nOverall bit rate mode                    : Variable\r\nOverall bit rate                         : 1 545 Kbps\r\nEncoded date                             : UTC 2015-08-30 23:21:35\r\nTagged date                              : UTC 2015-08-30 23:54:05\r\n\r\n\r\nVideo\r\nID                                       : 1\r\nFormat                                   : AVC\r\nFormat/Info                              : Advanced Video Codec\r\nFormat profile                           :   \r\nFormat settings, CABAC                   : Yes\r\nFormat settings, ReFrames                : 2 frames\r\nCodec ID                                 : avc1\r\nCodec ID/Info                            : Advanced Video Coding\r\nDuration                                 : 2h 0mn\r\nBit rate mode                            : Variable\r\nBit rate                                 : 1 400 Kbps\r\nWidth                                    : 1 280 pixels\r\nHeight                                   : 544 pixels\r\nDisplay aspect ratio                     : 2.35:1\r\nFrame rate mode                          : Variable\r\nFrame rate                               : 23.976 fps\r\nMinimum frame rate                       : 23.974 fps\r\nMaximum frame rate                       : 90 000.000 fps\r\nColor space                              : YUV\r\nChroma subsampling                       : 4:2:0\r\nBit depth                                : 8 bits\r\nScan type                                : Progressive\r\nBits/(Pixel*Frame)                       : 0.084\r\nStream size                              : 1.16 GiB (89%)\r\nWriting library                          : x264 core 120\r\n\r\n\r\nAudio\r\nID                                       : 2\r\nFormat                                   : AAC\r\nFormat/Info                              : Advanced Audio Codec\r\nFormat profile                           : LC\r\nCodec ID                                 : 40\r\nDuration                                 : 2h 0mn\r\nBit rate mode                            : Variable\r\nBit rate                                 : 160 Kbps\r\nMaximum bit rate                         : 279 Kbps\r\nChannel(s)                               : 2 channels\r\nChannel positions                        : Front: L R\r\nSampling rate                            : 48.0 KHz\r\nCompression mode                         : Lossy\r\nDelay relative to video                  : -42ms\r\nStream size                              : 137 MiB (10%)\r\nLanguage                                 : Spanish\r\nEncoded date                             : UTC 2015-08-30 23:21:35\r\nTagged date                              : UTC 2015-08-30 23:54:04","torrent":{"xt":"urn:btih:54584ba8d3b148ac12e2dff24ca27bd681778eba","amp;dn":"Mad+Max_Furia+en+la+Carretera+2015+%5B720p%5D%5BSpanish%5D","amp;tr":["udp%3A%2F%2Ftracker.leechers-paradise.org%3A6969","udp%3A%2F%2Fzer0day.ch%3A1337","udp%3A%2F%2Fopen.demonii.com%3A1337","udp%3A%2F%2Ftracker.coppersurfer.tk%3A6969","udp%3A%2F%2Fexodus.desync.com%3A6969"],"infoHash":"54584ba8d3b148ac12e2dff24ca27bd681778eba","infoHashBuffer":{"type":"Buffer","data":[84,88,75,168,211,177,72,172,18,226,223,242,76,162,123,214,129,119,142,186]},"announce":[],"urlList":[]}}